<?xml version="1.0" standalone="no"?>
<!DOCTYPE svg PUBLIC "-//W3C//DTD SVG 20010904//EN"
 "http://www.w3.org/TR/2001/REC-SVG-20010904/DTD/svg10.dtd">
<svg version="1.0" xmlns="http://www.w3.org/2000/svg"
 width="512.000000pt" height="512.000000pt" viewBox="0 0 512.000000 512.000000"
 preserveAspectRatio="xMidYMid meet">
<metadata>
Created by potrace 1.14, written by Peter Selinger 2001-2017
</metadata>
<g transform="translate(0.000000,512.000000) scale(0.100000,-0.100000)"
fill="#000000" stroke="none">
<path d="M3390 4855 c-168 -170 -366 -306 -975 -670 -720 -430 -963 -602
-1235 -875 -322 -322 -458 -576 -531 -995 -29 -167 -31 -421 -5 -565 48 -263
181 -528 358 -713 67 -70 68 -71 52 -32 -37 92 -76 216 -96 310 -32 145 -31
436 0 581 64 297 192 540 396 751 125 130 237 215 386 292 230 118 392 160
650 168 148 4 193 2 295 -15 613 -105 1091 -562 1227 -1172 20 -92 23 -131 23
-315 0 -163 -4 -228 -18 -290 -29 -132 -75 -266 -131 -378 l-54 -107 77 52
c114 78 314 283 394 403 167 253 258 531 288 875 11 136 7 330 -12 485 -10 86
-48 287 -55 294 -2 2 -22 -17 -45 -42 -93 -106 -271 -158 -539 -158 -91 0
-187 4 -214 8 l-50 8 67 39 c302 177 451 490 416 868 -5 56 -11 104 -13 106
-2 2 -42 -35 -87 -81 -51 -51 -110 -98 -149 -120 -83 -46 -220 -92 -335 -112
-108 -19 -357 -30 -438 -18 l-59 8 85 72 c384 327 573 796 488 1209 -17 82
-65 204 -80 204 -4 0 -40 -34 -81 -75z"/>
<path d="M2302 3009 c-630 -61 -1145 -536 -1252 -1157 -70 -401 36 -815 286
-1129 49 -61 60 -70 74 -60 9 7 256 228 548 492 507 457 532 481 532 514 0
108 130 191 233 147 105 -43 138 -178 65 -262 -41 -46 -81 -66 -129 -63 -38 3
-46 -3 -580 -485 l-542 -489 24 -19 c160 -126 386 -232 583 -273 68 -14 70
-14 97 10 16 13 101 87 189 165 153 135 160 144 159 178 0 21 -12 162 -27 315
-15 152 -25 283 -21 290 4 6 156 143 338 302 307 270 330 292 330 323 2 114
127 191 233 144 77 -34 118 -116 98 -194 -21 -77 -86 -128 -164 -128 -44 0
-47 -2 -340 -261 -286 -252 -296 -263 -296 -298 0 -20 11 -148 25 -286 14
-137 25 -266 25 -286 0 -34 -9 -44 -145 -165 -80 -70 -145 -130 -145 -132 0
-11 177 11 268 33 268 65 497 197 688 397 236 248 366 545 389 893 l7 100 -33
-31 c-19 -17 -170 -151 -336 -298 -167 -147 -303 -272 -303 -279 0 -7 5 -61
11 -122 12 -109 12 -110 49 -145 68 -63 75 -161 17 -227 -41 -46 -77 -63 -135
-63 -130 0 -204 141 -136 257 l25 44 -15 158 c-9 87 -16 166 -16 174 0 9 189
183 420 387 315 278 420 377 420 393 0 61 -62 243 -126 371 -63 126 -206 326
-233 326 -4 0 -110 -92 -235 -205 -126 -113 -233 -205 -240 -205 -6 0 -82 16
-169 34 l-159 34 -252 -228 c-241 -217 -253 -230 -259 -270 -15 -117 -137
-184 -244 -134 -68 33 -108 123 -89 199 17 68 118 135 180 119 22 -5 51 18
226 176 110 101 199 184 197 186 -2 2 -77 19 -166 39 l-164 35 -41 -34 c-22
-19 -147 -131 -276 -248 -182 -165 -235 -219 -235 -238 -3 -60 -7 -71 -36
-105 -43 -48 -78 -65 -137 -65 -122 0 -200 132 -145 247 23 50 85 88 142 88
45 0 45 0 357 282 l313 282 443 -94 c244 -52 450 -95 458 -95 13 0 101 76 338
291 l53 48 -72 50 c-88 62 -239 140 -341 176 l-77 27 -140 -127 c-107 -97
-141 -133 -141 -152 0 -70 -70 -147 -143 -158 -88 -13 -182 57 -194 145 -8 56
20 124 64 157 27 21 50 28 96 31 61 5 64 6 141 76 l79 71 -59 6 c-76 9 -129 8
-232 -2z"/>
</g>
</svg>
